<svg width="31" height="44" viewBox="0 0 31 44" fill="none" xmlns="http://www.w3.org/2000/svg">
<path d="M20.224 30.608H10.648L8.956 35H0.316L11.332 9.8H19.684L30.7 35H21.916L20.224 30.608ZM17.884 24.488L15.436 18.152L12.988 24.488H17.884Z" fill="#348FF3"/>
<path d="M20.088 31.096H11.576L10.072 35H2.392L12.184 12.6H19.608L29.4 35H21.592L20.088 31.096ZM18.008 25.656L15.832 20.024L13.656 25.656H18.008Z" fill="#4CC8CC"/>
<path d="M19.952 31.584H12.504L11.188 35H4.468L13.036 15.4H19.532L28.1 35H21.268L19.952 31.584ZM18.132 26.824L16.228 21.896L14.324 26.824H18.132Z" fill="white"/>
</svg>
